
<svg xmlns="http://www.w3.org/2000/svg" viewBox="0 0 100 80" fill="none">
  
  <ellipse cx="50" cy="38" rx="42" ry="8" fill="#FBF6EF" stroke="#3E3A31" stroke-width="1.6"></ellipse>
  <path d="M8 38 C10 58 25 70 50 70 C75 70 90 58 92 38" fill="#FFE4D1" stroke="#3E3A31" stroke-width="1.6"></path>
  
  <path d="M26 30 C22 22 28 16 36 18 C38 26 34 32 26 30 Z" fill="#7FB77E" stroke="#3E3A31" stroke-width="1.2"></path>
  <path d="M36 26 C32 18 40 12 48 14 C50 24 44 30 36 26 Z" fill="#A9D582" stroke="#3E3A31" stroke-width="1.2"></path>
  <path d="M50 30 C46 20 56 12 64 16 C66 26 58 34 50 30 Z" fill="#8CC461" stroke="#3E3A31" stroke-width="1.2"></path>
  <path d="M62 30 C60 22 68 18 74 22 C74 30 68 34 62 30 Z" fill="#7FB77E" stroke="#3E3A31" stroke-width="1.2"></path>
  
  <circle cx="36" cy="36" r="4" fill="#F06A7A" stroke="#3E3A31" stroke-width="1.2"></circle>
  <circle cx="60" cy="34" r="3.5" fill="#F06A7A" stroke="#3E3A31" stroke-width="1.2"></circle>
  
  <path d="M44 36 L48 32 L52 36 Z" fill="#FF9A6B" stroke="#3E3A31" stroke-width="1.2"></path>
</svg>